<svg width="32" height="32" viewBox="0 0 32 32" fill="none" xmlns="http://www.w3.org/2000/svg">
<g clip-path="url(#clip0_2019_37475)">
<path d="M0 16C0 7.16344 7.16344 0 16 0C24.8366 0 32 7.16344 32 16C32 24.8366 24.8366 32 16 32C7.16344 32 0 24.8366 0 16Z" fill="#CBCED0"/>
<circle cx="16" cy="13.75" r="5.5" fill="#F8F8F8" stroke="#F8F8F8" stroke-width="1.5"/>
<ellipse cx="16" cy="27.5" rx="8.75" ry="3.75" fill="#F8F8F8"/>
</g>
<path d="M16 30.5C7.99187 30.5 1.5 24.0081 1.5 16H-1.5C-1.5 25.665 6.33502 33.5 16 33.5V30.5ZM30.5 16C30.5 24.0081 24.0081 30.5 16 30.5V33.5C25.665 33.5 33.5 25.665 33.5 16H30.5ZM16 1.5C24.0081 1.5 30.5 7.99187 30.5 16H33.5C33.5 6.33502 25.665 -1.5 16 -1.5V1.5ZM16 -1.5C6.33502 -1.5 -1.5 6.33502 -1.5 16H1.5C1.5 7.99187 7.99187 1.5 16 1.5V-1.5Z" fill="#2EA8F7"/>
<defs>
<clipPath id="clip0_2019_37475">
<path d="M0 16C0 7.16344 7.16344 0 16 0C24.8366 0 32 7.16344 32 16C32 24.8366 24.8366 32 16 32C7.16344 32 0 24.8366 0 16Z" fill="white"/>
</clipPath>
</defs>
</svg>
