<svg width="32" height="33" viewBox="0 0 32 33" fill="none" xmlns="http://www.w3.org/2000/svg">
<rect y="0.386719" width="32" height="32" rx="16" fill="#2EA8F7"/>
<mask id="path-2-inside-1_1878_34723" fill="white">
<path fill-rule="evenodd" clip-rule="evenodd" d="M13.2361 8.38672C12.4785 8.38672 11.786 8.81472 11.4472 9.49229C11.3745 9.63772 11.3213 9.78596 11.2862 9.93465C11.1325 10.585 10.6682 11.3867 10 11.3867C8.34315 11.3867 7 12.7299 7 14.3867V21.3867C7 23.0436 8.34315 24.3867 10 24.3867H22C23.6569 24.3867 25 23.0436 25 21.3867V14.3867C25 12.7299 23.6569 11.3867 22 11.3867C21.3318 11.3867 20.8675 10.585 20.7138 9.93465C20.6787 9.78596 20.6255 9.63772 20.5528 9.49229C20.214 8.81472 19.5215 8.38672 18.7639 8.38672H13.2361Z"/>
</mask>
<path d="M11.4472 9.49229L10.3739 8.95564L10.3739 8.95564L11.4472 9.49229ZM20.5528 9.49229L21.6261 8.95564V8.95564L20.5528 9.49229ZM20.7138 9.93465L19.546 10.2106L20.7138 9.93465ZM11.2862 9.93465L10.1183 9.6587L11.2862 9.93465ZM12.5205 10.0289C12.656 9.75792 12.9331 9.58672 13.2361 9.58672V7.18672C12.024 7.18672 10.916 7.87153 10.3739 8.95564L12.5205 10.0289ZM12.454 10.2106C12.4678 10.1524 12.4892 10.0916 12.5205 10.0289L10.3739 8.95564C10.2598 9.1838 10.1748 9.41951 10.1183 9.6587L12.454 10.2106ZM8.2 14.3867C8.2 13.3926 9.00589 12.5867 10 12.5867V10.1867C7.6804 10.1867 5.8 12.0671 5.8 14.3867H8.2ZM8.2 21.3867V14.3867H5.8V21.3867H8.2ZM10 23.1867C9.00589 23.1867 8.2 22.3808 8.2 21.3867H5.8C5.8 23.7063 7.6804 25.5867 10 25.5867V23.1867ZM22 23.1867H10V25.5867H22V23.1867ZM23.8 21.3867C23.8 22.3808 22.9941 23.1867 22 23.1867V25.5867C24.3196 25.5867 26.2 23.7063 26.2 21.3867H23.8ZM23.8 14.3867V21.3867H26.2V14.3867H23.8ZM22 12.5867C22.9941 12.5867 23.8 13.3926 23.8 14.3867H26.2C26.2 12.0671 24.3196 10.1867 22 10.1867V12.5867ZM19.4795 10.0289C19.5108 10.0916 19.5322 10.1524 19.546 10.2106L21.8817 9.6587C21.8252 9.41951 21.7402 9.1838 21.6261 8.95564L19.4795 10.0289ZM18.7639 9.58672C19.0669 9.58672 19.344 9.75792 19.4795 10.0289L21.6261 8.95564C21.084 7.87153 19.976 7.18672 18.7639 7.18672V9.58672ZM13.2361 9.58672H18.7639V7.18672H13.2361V9.58672ZM22 10.1867C22.1854 10.1867 22.2136 10.2997 22.1117 10.1685C22.0694 10.114 22.0222 10.0367 21.9785 9.9402C21.9351 9.84456 21.9023 9.74613 21.8817 9.6587L19.546 10.2106C19.6544 10.6692 19.8724 11.198 20.2162 11.6406C20.5519 12.0729 21.1464 12.5867 22 12.5867V10.1867ZM10.1183 9.6587C10.0977 9.74613 10.0649 9.84456 10.0215 9.9402C9.97776 10.0367 9.93061 10.114 9.88831 10.1685C9.78642 10.2997 9.8146 10.1867 10 10.1867V12.5867C10.8536 12.5867 11.4481 12.0729 11.7838 11.6406C12.1276 11.198 12.3456 10.6692 12.454 10.2106L10.1183 9.6587Z" fill="white" mask="url(#path-2-inside-1_1878_34723)"/>
<circle cx="16" cy="17.3867" r="3.4" stroke="white" stroke-width="1.2"/>
<circle cx="10" cy="14.3867" r="0.5" fill="white"/>
</svg>
