<svg width="20" height="20" viewBox="0 0 20 20" fill="none" xmlns="http://www.w3.org/2000/svg">
<path d="M6.29926 5.45074C6.06495 5.21642 5.68505 5.21642 5.45074 5.45074C5.21642 5.68505 5.21642 6.06495 5.45074 6.29926L6.29926 5.45074ZM13.7003 14.5488C13.9346 14.7832 14.3145 14.7832 14.5488 14.5488C14.7832 14.3145 14.7832 13.9346 14.5488 13.7003L13.7003 14.5488ZM5.45074 6.29926L13.7003 14.5488L14.5488 13.7003L6.29926 5.45074L5.45074 6.29926Z" fill="#5E656E"/>
<path d="M14.5493 6.29926C14.7836 6.06495 14.7836 5.68505 14.5493 5.45074C14.3149 5.21642 13.9351 5.21642 13.7007 5.45074L14.5493 6.29926ZM5.45116 13.7003C5.21684 13.9346 5.21684 14.3145 5.45116 14.5488C5.68547 14.7832 6.06537 14.7832 6.29969 14.5488L5.45116 13.7003ZM13.7007 5.45074L5.45116 13.7003L6.29969 14.5488L14.5493 6.29926L13.7007 5.45074Z" fill="#5E656E"/>
</svg>
