<svg width="24" height="24" viewBox="0 0 24 24" fill="none" xmlns="http://www.w3.org/2000/svg">
<path d="M18.1866 6.87408C18.4795 6.58119 18.4795 6.10631 18.1866 5.81342C17.8937 5.52053 17.4188 5.52053 17.1259 5.81342L18.1866 6.87408ZM5.81221 17.1271C5.51932 17.42 5.51932 17.8949 5.81221 18.1878C6.1051 18.4807 6.57998 18.4807 6.87287 18.1878L5.81221 17.1271ZM17.1259 5.81342L5.81221 17.1271L6.87287 18.1878L18.1866 6.87408L17.1259 5.81342Z" fill="#5E656E"/>
<path d="M17.1259 18.1866C17.4188 18.4795 17.8937 18.4795 18.1866 18.1866C18.4795 17.8937 18.4795 17.4188 18.1866 17.1259L17.1259 18.1866ZM6.87287 5.81221C6.57998 5.51932 6.1051 5.51932 5.81221 5.81221C5.51932 6.1051 5.51932 6.57998 5.81221 6.87287L6.87287 5.81221ZM18.1866 17.1259L6.87287 5.81221L5.81221 6.87287L17.1259 18.1866L18.1866 17.1259Z" fill="#5E656E"/>
</svg>
