<svg width="24" height="24" viewBox="0 0 24 24" fill="none" xmlns="http://www.w3.org/2000/svg">
<rect x="3.5" y="3.5" width="17" height="17" rx="2.5" stroke="#16191D"/>
<path d="M9.96911 14.0269L10.3518 14.3487L9.96911 14.0269ZM9.19182 14.0123L9.58638 13.7052L9.19182 14.0123ZM15.8012 8.91054L16.1839 8.5888L15.8012 8.91054ZM14.2703 8.91054L14.653 9.23229L14.2703 8.91054ZM20.2655 14.221L20.6482 13.8993L20.2655 14.221ZM3.71088 14.2291L3.31632 13.922L3.71088 14.2291ZM6 21H18V20H6V21ZM20.6482 13.8993L16.1839 8.5888L15.4184 9.23229L19.8827 14.5427L20.6482 13.8993ZM13.8875 8.5888L9.58638 13.7052L10.3518 14.3487L14.653 9.23229L13.8875 8.5888ZM9.58638 13.7052L7.71939 11.3067L6.93027 11.9209L8.79726 14.3194L9.58638 13.7052ZM5.35204 11.3067L3.31632 13.922L4.10544 14.5362L6.14116 11.9209L5.35204 11.3067ZM3 14.8433V18H4V14.8433H3ZM21 18V14.8645H20V18H21ZM7.71939 11.3067C7.11885 10.5351 5.95258 10.5351 5.35204 11.3067L6.14116 11.9209C6.34133 11.6637 6.73009 11.6637 6.93027 11.9209L7.71939 11.3067ZM9.58638 13.7052L8.79726 14.3194C9.18812 14.8216 9.94237 14.8358 10.3518 14.3487L9.58638 13.7052ZM16.1839 8.5888C15.5845 7.87578 14.4869 7.87577 13.8875 8.5888L14.653 9.23229C14.8528 8.99461 15.2186 8.99461 15.4184 9.23229L16.1839 8.5888ZM19.8827 14.5427C19.9585 14.6328 20 14.7468 20 14.8645H21C21 14.5114 20.8754 14.1696 20.6482 13.8993L19.8827 14.5427ZM18 21C19.6569 21 21 19.6569 21 18H20C20 19.1046 19.1046 20 18 20V21ZM6 20C4.89543 20 4 19.1046 4 18H3C3 19.6569 4.34315 21 6 21V20ZM3.31632 13.922C3.11131 14.1853 3 14.5096 3 14.8433H4C4 14.7321 4.0371 14.624 4.10544 14.5362L3.31632 13.922Z" fill="#16191D"/>
<circle cx="7" cy="7" r="1.5" stroke="#16191D"/>
</svg>
