<svg width="20" height="20" viewBox="0 0 20 20" fill="none" xmlns="http://www.w3.org/2000/svg">
<rect x="3" y="3" width="14" height="14" rx="2.5" stroke="#16191D"/>
<path d="M6.23685 9.84647L5.84229 10.1536L6.23685 9.84647ZM4.65861 9.84647L4.26405 9.53935L4.65861 9.84647ZM8.37517 11.6096L8.7579 11.9314L8.37517 11.6096ZM7.59789 11.595L7.99245 11.2879L7.59789 11.595ZM13.2965 7.57656L13.6792 7.25481L13.2965 7.57656ZM11.7656 7.57656L12.1483 7.8983L11.7656 7.57656ZM16.8501 11.8037L17.2328 11.4819L16.8501 11.8037ZM3.12885 11.8118L3.52341 12.1189L3.12885 11.8118ZM5.0013 17.5827H15.0013V16.5827H5.0013V17.5827ZM17.2328 11.4819L13.6792 7.25481L12.9138 7.8983L16.4674 12.1254L17.2328 11.4819ZM11.3829 7.25481L7.99245 11.2879L8.7579 11.9314L12.1483 7.8983L11.3829 7.25481ZM7.99245 11.2879L6.63141 9.53935L5.84229 10.1536L7.20333 11.9021L7.99245 11.2879ZM4.26405 9.53935L2.73429 11.5046L3.52341 12.1189L5.05317 10.1536L4.26405 9.53935ZM2.41797 12.426V14.9993H3.41797V12.426H2.41797ZM17.5846 14.9993V12.4472H16.5846V14.9993H17.5846ZM6.63141 9.53935C6.03087 8.76783 4.86459 8.76783 4.26405 9.53935L5.05317 10.1536C5.25335 9.89641 5.64211 9.89641 5.84229 10.1536L6.63141 9.53935ZM7.99245 11.2879L7.99245 11.2879L7.20333 11.9021C7.59419 12.4043 8.34843 12.4184 8.7579 11.9314L7.99245 11.2879ZM13.6792 7.25481C13.0798 6.54179 11.9823 6.54179 11.3829 7.25481L12.1483 7.8983C12.3481 7.66063 12.714 7.66063 12.9138 7.8983L13.6792 7.25481ZM16.4674 12.1254C16.5431 12.2155 16.5846 12.3295 16.5846 12.4472H17.5846C17.5846 12.094 17.4601 11.7522 17.2328 11.4819L16.4674 12.1254ZM15.0013 17.5827C16.428 17.5827 17.5846 16.4261 17.5846 14.9993H16.5846C16.5846 15.8738 15.8758 16.5827 15.0013 16.5827V17.5827ZM5.0013 16.5827C4.12685 16.5827 3.41797 15.8738 3.41797 14.9993H2.41797C2.41797 16.4261 3.57457 17.5827 5.0013 17.5827V16.5827ZM2.73429 11.5046C2.52928 11.768 2.41797 12.0922 2.41797 12.426H3.41797C3.41797 12.3147 3.45507 12.2067 3.52341 12.1189L2.73429 11.5046Z" fill="#16191D"/>
<circle cx="5.83464" cy="5.83268" r="1.16667" stroke="#16191D"/>
</svg>
