<svg width="28" height="28" viewBox="0 0 28 28" fill="none" xmlns="http://www.w3.org/2000/svg">
<path d="M10.0412 23.9408H10.0473C11.3289 24.3135 12.6611 24.502 14.0004 24.5C20.7659 24.5 26.25 19.7999 26.25 14.0025C26.25 8.20517 20.765 3.5 13.9996 3.5C7.23673 3.5 1.75 8.20178 1.75 14M10.0412 23.9408L10.0473 23.9195L10.209 23.3647C10.1821 23.3569 10.1551 23.3489 10.1281 23.3407M10.0412 23.9408V23.3407H10.0473H10.1281M10.0412 23.9408C9.91903 23.9052 9.7969 23.867 9.67655 23.8281C7.875 22.82 6.2385 23.8619 6.2385 23.8619L5.95371 23.333M10.1281 23.3407H10.1328L10.2149 23.3646C11.4415 23.7214 12.717 23.9019 13.9996 23.9L14.0004 23.9C20.5248 23.9 25.65 19.385 25.65 14.0025C25.65 8.61978 20.5235 4.1 13.9996 4.1C7.47814 4.1 2.35028 8.61637 2.35 13.9996M10.1281 23.3407C10.0574 23.3195 9.98641 23.2973 9.91522 23.2746C8.87716 22.713 7.88369 22.7261 7.1575 22.88C6.78997 22.9579 6.48782 23.0722 6.27557 23.168C6.16905 23.2161 6.08401 23.26 6.02339 23.2933C5.99468 23.3091 5.97135 23.3225 5.95371 23.333M2.35 13.9996C2.35 13.9994 2.35 13.9992 2.35 13.9991L1.75 14M2.35 13.9996C2.35 13.9997 2.35 13.9998 2.35 14H1.75M2.35 13.9996C2.35269 15.7116 2.86616 17.3892 3.83286 18.8352L3.85038 18.8614L3.86505 18.8893L3.33407 19.1686M1.75 14C1.75278 15.8322 2.30238 17.6255 3.33407 19.1686M3.33407 19.1686C3.86505 18.8893 3.86516 18.8895 3.86528 18.8897L3.86554 18.8902L3.86613 18.8913L3.8676 18.8941L3.87164 18.902L3.8839 18.9265C3.89383 18.9467 3.90715 18.9744 3.92305 19.0092C3.9548 19.0788 3.99702 19.177 4.04295 19.2993C4.13447 19.543 4.24278 19.8879 4.31118 20.2972C4.44745 21.1125 4.43104 22.2276 3.7539 23.289L3.24807 22.9664M3.33407 19.1686L3.24807 22.9664M3.24807 22.9664L3.7539 23.289C3.66104 23.4346 3.64746 23.6007 3.67521 23.6987C3.68461 23.7319 3.69524 23.7461 3.6986 23.75C3.70295 23.7515 3.71254 23.7538 3.73034 23.7543C4.40305 23.7749 5.19968 23.6876 5.95371 23.333M3.24807 22.9664L5.95371 23.333M3.69563 23.7485C3.69568 23.7484 3.69656 23.7487 3.69794 23.7497C3.69626 23.7491 3.69557 23.7486 3.69563 23.7485Z" stroke="#16191D" stroke-width="1.2"/>
</svg>
