<svg width="28" height="28" viewBox="0 0 28 28" fill="none" xmlns="http://www.w3.org/2000/svg">
<path d="M23.6457 4.35427L24.0699 3.93001L23.6457 4.35427ZM7.58333 24.5414V25.1414C7.74246 25.1414 7.89508 25.0782 8.0076 24.9657L7.58333 24.5414ZM3.5 24.5414H2.9C2.9 24.8728 3.16863 25.1414 3.5 25.1414V24.5414ZM3.5 20.3751L3.07574 19.9509C2.96321 20.0634 2.9 20.216 2.9 20.3751H3.5ZM19.9451 4.77854C20.8499 3.87382 22.3167 3.87382 23.2214 4.77854L24.0699 3.93001C22.6966 2.55666 20.47 2.55666 19.0966 3.93001L19.9451 4.77854ZM23.2214 4.77854C24.1261 5.68325 24.1261 7.15008 23.2214 8.0548L24.0699 8.90333C25.4433 7.52998 25.4433 5.30335 24.0699 3.93001L23.2214 4.77854ZM23.2214 8.0548L7.15907 24.1171L8.0076 24.9657L24.0699 8.90333L23.2214 8.0548ZM7.58333 23.9414H3.5V25.1414H7.58333V23.9414ZM19.0966 3.93001L3.07574 19.9509L3.92426 20.7994L19.9451 4.77854L19.0966 3.93001ZM2.9 20.3751V24.5414H4.1V20.3751H2.9ZM17.3466 6.52854L21.4714 10.6533L22.3199 9.8048L18.1951 5.68001L17.3466 6.52854Z" fill="#16191D"/>
</svg>
