<svg width="28" height="28" viewBox="0 0 28 28" fill="none" xmlns="http://www.w3.org/2000/svg">
<path d="M4.80417 19.4896L5.36126 19.7124L5.48401 19.4055L5.29022 19.1378L4.80417 19.4896ZM3.16015 23.5996L2.60307 23.3768H2.60307L3.16015 23.5996ZM3.40909 23.8636L3.59883 24.4328H3.59883L3.40909 23.8636ZM7.94681 22.3511L8.2556 21.8366L8.01894 21.6946L7.75707 21.7819L7.94681 22.3511ZM24.4 14C24.4 19.1389 19.7989 23.4 14 23.4V24.6C20.3514 24.6 25.6 19.9068 25.6 14H24.4ZM14 4.6C19.7989 4.6 24.4 8.86106 24.4 14H25.6C25.6 8.09325 20.3514 3.4 14 3.4V4.6ZM3.6 14C3.6 8.86106 8.20114 4.6 14 4.6V3.4C7.64859 3.4 2.4 8.09325 2.4 14H3.6ZM5.29022 19.1378C4.21894 17.6577 3.6 15.893 3.6 14H2.4C2.4 16.1616 3.10831 18.1699 4.31812 19.8414L5.29022 19.1378ZM3.71724 23.8225L5.36126 19.7124L4.24708 19.2667L2.60307 23.3768L3.71724 23.8225ZM3.21936 23.2944C3.54243 23.1867 3.84371 23.5063 3.71724 23.8225L2.60307 23.3768C2.35012 24.0092 2.95269 24.6482 3.59883 24.4328L3.21936 23.2944ZM7.75707 21.7819L3.21936 23.2944L3.59883 24.4328L8.13655 22.9203L7.75707 21.7819ZM14 23.4C11.8726 23.4 9.89882 22.823 8.2556 21.8366L7.63802 22.8655C9.46746 23.9636 11.6547 24.6 14 24.6V23.4Z" fill="#16191D"/>
<path d="M12.9963 15.8913V15.7757C12.9993 15.2389 13.0506 14.8118 13.1502 14.4945C13.2527 14.1771 13.3976 13.9221 13.5846 13.7293C13.7717 13.5335 13.9995 13.3541 14.268 13.191C14.452 13.0783 14.6164 12.9552 14.7612 12.8218C14.9091 12.6853 15.0252 12.5341 15.1097 12.368C15.1942 12.1989 15.2364 12.0106 15.2364 11.803C15.2364 11.5687 15.1806 11.3655 15.069 11.1935C14.9573 11.0215 14.8065 10.8881 14.6164 10.7932C14.4294 10.6982 14.2197 10.6508 13.9874 10.6508C13.7732 10.6508 13.5695 10.6968 13.3764 10.7887C13.1864 10.8777 13.028 11.0141 12.9013 11.198C12.7776 11.3789 12.7082 11.6087 12.6931 11.8875H11.082C11.0971 11.324 11.2359 10.8525 11.4984 10.4728C11.7639 10.0932 12.1138 9.80851 12.5483 9.6187C12.9857 9.42889 13.4685 9.33398 13.9964 9.33398C14.5727 9.33398 15.0795 9.43334 15.517 9.63205C15.9575 9.83075 16.2999 10.114 16.5443 10.4817C16.7917 10.8465 16.9154 11.2795 16.9154 11.7808C16.9154 12.1189 16.8596 12.4214 16.7479 12.6883C16.6393 12.9552 16.4839 13.1925 16.2818 13.4001C16.0797 13.6077 15.8398 13.793 15.5622 13.9562C15.3179 14.1045 15.1172 14.2587 14.9604 14.4188C14.8065 14.579 14.6918 14.7673 14.6164 14.9838C14.544 15.1973 14.5063 15.4613 14.5033 15.7757V15.8913H12.9963ZM13.7837 18.6673C13.5122 18.6673 13.2784 18.5724 13.0823 18.3826C12.8862 18.1928 12.7881 17.9615 12.7881 17.6886C12.7881 17.4217 12.8862 17.1933 13.0823 17.0035C13.2784 16.8137 13.5122 16.7188 13.7837 16.7188C14.0522 16.7188 14.2846 16.8137 14.4807 17.0035C14.6798 17.1933 14.7793 17.4217 14.7793 17.6886C14.7793 17.8695 14.7326 18.0341 14.6391 18.1824C14.5485 18.3307 14.4279 18.4493 14.277 18.5383C14.1292 18.6243 13.9648 18.6673 13.7837 18.6673Z" fill="#16191D"/>
</svg>
