<svg width="28" height="28" viewBox="0 0 28 28" fill="none" xmlns="http://www.w3.org/2000/svg">
<path d="M11.9453 14.9336C12.3748 15.5077 12.9227 15.9827 13.5519 16.3265C14.1811 16.6703 14.8768 16.8747 15.592 16.9259C16.3071 16.9771 17.0249 16.8739 17.6967 16.6233C18.3684 16.3728 18.9784 15.9806 19.4853 15.4736L22.4853 12.4736C23.3961 11.5305 23.9001 10.2675 23.8887 8.95655C23.8773 7.64557 23.3514 6.39151 22.4244 5.46447C21.4974 4.53743 20.2433 4.01158 18.9323 4.00019C17.6213 3.9888 16.3583 4.49277 15.4153 5.40356L13.6953 7.11356" stroke="#16191D" stroke-width="1.2" stroke-linecap="round" stroke-linejoin="round"/>
<path d="M15.9436 12.9328C15.5141 12.3587 14.9662 11.8837 14.337 11.5399C13.7078 11.1961 13.0121 10.9917 12.2969 10.9405C11.5818 10.8893 10.864 10.9925 10.1922 11.2431C9.52045 11.4936 8.91044 11.8858 8.40356 12.3928L5.40356 15.3928C4.49277 16.3359 3.9888 17.5989 4.00019 18.9098C4.01158 20.2208 4.53743 21.4749 5.46447 22.4019C6.39151 23.329 7.64557 23.8548 8.95655 23.8662C10.2675 23.8776 11.5305 23.3736 12.4736 22.4628L14.1836 20.7528" stroke="#16191D" stroke-width="1.2" stroke-linecap="round" stroke-linejoin="round"/>
</svg>
