<svg width="24" height="24" viewBox="0 0 24 24" fill="none" xmlns="http://www.w3.org/2000/svg">
<path d="M11.5876 3.48625C11.7862 3.19646 12.2138 3.19646 12.4124 3.48625L14.9132 7.13523C15.1083 7.41983 15.3955 7.62849 15.7264 7.72604L19.9696 8.97686C20.3066 9.07619 20.4387 9.48292 20.2245 9.76135L17.5269 13.2674C17.3165 13.5408 17.2068 13.8784 17.2163 14.2233L17.3379 18.6453C17.3476 18.9965 17.0016 19.2479 16.6706 19.1302L12.5026 17.648C12.1775 17.5324 11.8225 17.5324 11.4974 17.648L7.32941 19.1302C6.9984 19.2479 6.65242 18.9965 6.66207 18.6453L6.7837 14.2233C6.79318 13.8784 6.68348 13.5408 6.47309 13.2674L3.77549 9.76136C3.56126 9.48292 3.69342 9.07619 4.03039 8.97686L8.27357 7.72604C8.60451 7.62849 8.89171 7.41983 9.08675 7.13523L11.5876 3.48625Z" stroke="#16191D"/>
</svg>
