<svg width="20" height="20" viewBox="0 0 20 20" fill="none" xmlns="http://www.w3.org/2000/svg">
<path d="M9.58887 3.15226C9.78747 2.86248 10.2151 2.86248 10.4137 3.15226L12.3268 5.9436C12.5218 6.2282 12.809 6.43685 13.1399 6.53441L16.3858 7.49123C16.7228 7.59057 16.8549 7.9973 16.6407 8.27573L14.5772 10.9577C14.3668 11.2311 14.2571 11.5688 14.2666 11.9136L14.3596 15.2963C14.3692 15.6475 14.0233 15.8989 13.6923 15.7812L10.5039 14.6474C10.1788 14.5318 9.82381 14.5318 9.49873 14.6474L6.31035 15.7812C5.97935 15.8989 5.63336 15.6475 5.64302 15.2963L5.73605 11.9136C5.74554 11.5688 5.63584 11.2311 5.42545 10.9577L3.36189 8.27573C3.14766 7.9973 3.27981 7.59057 3.61679 7.49123L6.86266 6.53441C7.1936 6.43685 7.48079 6.2282 7.67584 5.9436L9.58887 3.15226Z" stroke="#16191D"/>
</svg>
