<svg width="28" height="28" viewBox="0 0 28 28" fill="none" xmlns="http://www.w3.org/2000/svg">
<path d="M4.80417 19.4896L5.36126 19.7124L5.48401 19.4055L5.29022 19.1378L4.80417 19.4896ZM3.16015 23.5996L2.60307 23.3768H2.60307L3.16015 23.5996ZM3.40909 23.8636L3.59883 24.4328H3.59883L3.40909 23.8636ZM7.94681 22.3511L8.2556 21.8366L8.01894 21.6946L7.75707 21.7819L7.94681 22.3511ZM24.4 14C24.4 19.1389 19.7989 23.4 14 23.4V24.6C20.3514 24.6 25.6 19.9068 25.6 14H24.4ZM14 4.6C19.7989 4.6 24.4 8.86106 24.4 14H25.6C25.6 8.09325 20.3514 3.4 14 3.4V4.6ZM3.6 14C3.6 8.86106 8.20114 4.6 14 4.6V3.4C7.64859 3.4 2.4 8.09325 2.4 14H3.6ZM5.29022 19.1378C4.21894 17.6577 3.6 15.893 3.6 14H2.4C2.4 16.1616 3.10831 18.1699 4.31812 19.8414L5.29022 19.1378ZM3.71724 23.8225L5.36126 19.7124L4.24708 19.2667L2.60307 23.3768L3.71724 23.8225ZM3.21936 23.2944C3.54242 23.1867 3.84371 23.5063 3.71724 23.8225L2.60307 23.3768C2.35012 24.0092 2.95269 24.6482 3.59883 24.4328L3.21936 23.2944ZM7.75707 21.7819L3.21936 23.2944L3.59883 24.4328L8.13655 22.9203L7.75707 21.7819ZM14 23.4C11.8726 23.4 9.89882 22.823 8.2556 21.8366L7.63802 22.8655C9.46746 23.9636 11.6547 24.6 14 24.6V23.4Z" fill="#16191D"/>
<circle cx="18" cy="14" r="1" fill="#16191D"/>
<circle cx="10" cy="14" r="1" fill="#16191D"/>
<circle cx="14" cy="14" r="1" fill="#16191D"/>
</svg>
